<svg id="Layer_1" data-name="Layer 1" xmlns="http://www.w3.org/2000/svg" viewBox="0 0 1064.28 446.46"><defs><style>.cls-1,.cls-3,.cls-4,.cls-5,.cls-6{fill:#006a80;}.cls-2,.cls-3,.cls-4,.cls-5,.cls-6{isolation:isolate;}.cls-3,.cls-4,.cls-5,.cls-6{font-size:57.96px;font-family:ArialMT, Arial;}.cls-3{letter-spacing:-0.04em;}.cls-4{letter-spacing:-0.01em;}.cls-5{letter-spacing:-0.01em;}.cls-7{fill:none;stroke:#006a80;stroke-miterlimit:10;stroke-width:6px;}</style></defs><path class="cls-1" d="M309.79,110.52c-7.44,1.87-8.35,2.62-8.35,15.35v14.41a148.84,148.84,0,0,0,.78,18.16c-6.66,1.68-21,6.18-31.6,6.18-30.68,0-48.31-26.77-48.31-63.83,0-42.12,23.89-63.27,51.7-63.27,10.58,0,22.08,3.74,26.39,4.31.26,8.23,1.29,22.46,2.22,32.75l-5.11,1.31c-3.13-15.91-8-24-16.05-27.89-3-1.5-7.84-2.24-11.11-2.24-15.8,0-27.67,19.65-27.67,51.85,0,32.94,8.08,59,29.5,59,2.61,0,6-.57,8.36-2.62,2-1.69,3-4.87,3-10.67V126.81c0-13.11-1.83-14.42-12.8-16.29v-6.93h39Z" transform="translate(46.38 38.75)"/><path class="cls-1" d="M390.63,130c-.65,5-4.31,26.58-5.49,31.82H317.37v-6.74c11.88-1.69,12.67-2.62,12.67-18.34V65.22c0-15.91-1.57-17-10.45-18.15V40.14H362c13.71,0,18.28-.19,20.1-.37.13,3.37.78,18.71,1.31,30.32l-5.1.94c-1.17-6.37-3.39-14-5.6-17.41-2.36-3.75-4-4.87-10.71-4.87h-8.49c-5,0-5.48.38-5.48,6.74V94.61h12.79c7.31,0,8.61-2.81,10.58-16.1h5.1v41.74h-5.1c-2.09-13.85-3.14-16.09-10.71-16.09H348.06v32.22c0,12.92.26,16.85,8.35,17h9.27c7.31,0,9.27-1.31,12.14-6.36,3.27-5.43,5.89-12.35,8-18.72Z" transform="translate(46.38 38.75)"/><path class="cls-1" d="M445.6,37.52c24.16,0,43.88,25.27,43.88,62.14,0,39.87-19.85,65-44.53,65-26.12,0-45.05-27.33-45.05-63.46C399.9,69.15,415.82,37.52,445.6,37.52Zm-2,8.24c-13.33,0-23.12,18.71-23.12,51.85,0,31.63,8.75,58.77,26.38,58.77,12.4,0,22.07-17.22,22.07-51.47C469,67.84,458.78,45.76,443.65,45.76Z" transform="translate(46.38 38.75)"/><path class="cls-1" d="M583,162.93a34.19,34.19,0,0,1-3.92-.19c-16.58-1.12-21.42-6.17-25.33-14-5.23-10.3-9-21.72-13.45-33-2-5-3.79-6.18-8-6.18l-2.61-.18v27.33c0,15.16,1.3,16.47,11.09,18.15v6.93h-40v-6.91c9.93-1.5,11.11-3,11.11-18.15V65c0-14.79-1.31-16.85-11.11-18v-6.9h38c11.61,0,18.28,1.87,23.63,7.11,5.22,5.06,8.75,13.29,8.75,24.9,0,16.66-7.71,25.46-16.33,30.32,2,5.62,7,17.78,11,26.39a160.3,160.3,0,0,0,9.9,19.52c3,4.87,4.44,6.36,8.22,8.24Zm-49.77-61.21c5.61,0,9.92-1.31,12.79-4.86,4.31-5.24,6.15-12.36,6.15-21.9,0-19.84-8-27-15.28-27-3.53,0-5.22.75-6,1.87s-1.18,3.37-1.18,7.12v44.73Z" transform="translate(46.38 38.75)"/><path class="cls-1" d="M675.42,110.52c-7.44,1.87-8.36,2.62-8.36,15.35v14.41a150.88,150.88,0,0,0,.79,18.16c-6.66,1.68-21,6.18-31.6,6.18-30.68,0-48.31-26.77-48.31-63.83,0-42.12,23.89-63.27,51.71-63.27,10.58,0,22.07,3.74,26.38,4.31.26,8.23,1.3,22.46,2.22,32.75l-5.1,1.31c-3.13-15.91-8-24-16.06-27.89-3-1.5-7.83-2.24-11.1-2.24-15.78,0-27.69,19.62-27.69,51.85,0,32.94,8.1,59,29.51,59,2.61,0,6-.57,8.36-2.62,2-1.69,3-4.87,3-10.67V126.81c0-13.11-1.83-14.42-12.8-16.29v-6.93h39Z" transform="translate(46.38 38.75)"/><path class="cls-1" d="M756.25,130c-.65,5-4.31,26.58-5.47,31.82H683v-6.74c11.89-1.69,12.67-2.62,12.67-18.34V65.22c0-15.91-1.57-17-10.45-18.15V40.14h42.44c13.71,0,18.28-.19,20.11-.37.13,3.37.79,18.71,1.31,30.32L744,71c-1.18-6.37-3.4-14-5.62-17.41-2.35-3.75-4-4.87-10.71-4.87h-8.44c-5,0-5.48.38-5.48,6.74V94.61h12.8c7.31,0,8.62-2.81,10.57-16.1h5.11v41.74h-5.1c-2.1-13.85-3.13-16.09-10.7-16.09H713.68v32.22c0,12.92.26,16.85,8.36,17h9.27c7.31,0,9.28-1.31,12.15-6.36,3.27-5.43,5.88-12.35,8-18.72Z" transform="translate(46.38 38.75)"/><path class="cls-1" d="M40.59,227.74c16.72,0,29,5.06,37.35,16.29,6.66,8.8,11.75,21.9,11.75,40.8,0,21.53-6.27,38-16.32,48.86-9.66,10.48-22.07,15.72-37,15.72H.5v-6.93c9.93-1.12,11.1-2.8,11.1-18.34V253c0-15.72-1.43-17.22-11.1-18.34v-6.93ZM29.75,322.83c0,13.29,2.35,17.78,11.89,17.78,17.63,0,27.81-17.59,27.81-53,0-17.78-3.39-33.32-9.4-41.36-5.48-7.87-12.27-10.49-21-10.49-4.84,0-7.06,1.5-7.84,2.62-1.17,1.69-1.44,4.87-1.44,10.3Z" transform="translate(46.38 38.75)"/><path class="cls-1" d="M172.74,317.59c-.65,5-4.31,26.58-5.48,31.82H99.49v-6.74c11.88-1.68,12.66-2.62,12.66-18.34v-71.5c0-15.91-1.56-17-10.44-18.16v-6.93h42.44c13.71,0,18.28-.18,20.11-.37.13,3.37.78,18.72,1.3,30.32l-5.09.94c-1.18-6.37-3.4-14-5.62-17.41-2.35-3.74-4-4.87-10.7-4.87h-8.49c-5,0-5.49.38-5.49,6.74v39.12H143c7.31,0,8.62-2.8,10.58-16.09h5.09v41.74h-5.09c-2.09-13.85-3.14-16.1-10.71-16.1H130.17V324c0,12.92.26,16.85,8.36,17h9.27c7.32,0,9.27-1.31,12.15-6.37,3.26-5.43,5.87-12.35,8-18.71Z" transform="translate(46.38 38.75)"/><path class="cls-1" d="M263,317.22c-1.83,9.35-5.23,23.58-7.32,30.13-3.39,1.13-14.1,4.87-24,4.87-35.13,0-49.63-32.38-49.63-62.15,0-38.74,20.64-64.95,52-64.95,11.36,0,21.41,3.93,24.68,4.5.65,8.79,1.56,22.64,2.48,30.88L256,261.81c-2.74-14.6-6.66-21.53-13.58-25.46-3.13-1.87-7.83-2.62-11.36-2.62-18.93,0-28.46,22.65-28.46,52,0,34.25,12.27,57.46,30.16,57.46,11,0,18.28-8.23,25.33-28.82Z" transform="translate(46.38 38.75)"/><path class="cls-1" d="M319.78,225.12c24.16,0,43.88,25.27,43.88,62.15,0,39.87-19.85,65-44.53,65-26.12,0-45.06-27.33-45.06-63.46C274.07,256.76,290,225.12,319.78,225.12Zm-2,8.24c-13.32,0-23.11,18.72-23.11,51.85,0,31.63,8.75,58.77,26.38,58.77,12.4,0,22.06-17.22,22.06-51.47,0-37.06-10.14-59.15-25.29-59.15Z" transform="translate(46.38 38.75)"/><path class="cls-1" d="M457.15,350.53a33.41,33.41,0,0,1-3.87-.17c-16.59-1.13-21.42-6.18-25.34-14-5.22-10.3-9-21.71-13.45-32.95-2-5.05-3.79-6.17-8-6.17l-2.62-.19v27.31c0,15.16,1.31,16.47,11.1,18.15v6.93H375v-6.93c9.92-1.49,11.09-3,11.09-18.15V252.64c0-14.79-1.3-16.85-11.09-18v-6.93h37.86c11.63,0,18.29,1.88,23.64,7.12,5.22,5,8.75,13.29,8.75,24.89,0,16.66-7.7,25.46-16.32,30.32,2,5.62,7.05,17.79,11,26.4a159.65,159.65,0,0,0,9.92,19.46c3,4.87,4.44,6.37,8.23,8.24ZM407.4,289.36c5.62,0,9.92-1.31,12.8-4.87,4.31-5.24,6.13-12.35,6.13-21.9,0-19.84-8-26.95-15.27-26.95-3.53,0-5.23.74-6,1.87s-1.18,3.37-1.18,7.11v44.74Z" transform="translate(46.38 38.75)"/><path class="cls-1" d="M511.47,349.41v-6.93c8.23-1.68,8.23-3.74,6.4-11.79-1.3-5.61-3.39-14-5.35-21.52H487.06c-1.44,5.8-3.27,12.91-4.57,18.72-2.75,11.79.39,13.28,10.7,14.59v6.93H460.94v-6.93c8.22-1.49,10.31-3.18,14.75-18.9l27.17-96.77,6.26-1.69c8.36,32.57,17.24,65.89,25.73,97.15,4.83,17.41,6,18.72,14.49,20.21v6.93ZM500,259.94c-3.78,13.48-7.44,26-10.7,39.68H510Z" transform="translate(46.38 38.75)"/><path class="cls-1" d="M615.81,260.13a71.9,71.9,0,0,0-5.61-18.35c-2.35-3.93-3.4-5.43-11.1-5.43h-8.36v88c0,15.72,1.31,16.84,12.93,18.15v6.93H560.28V342.5c11.1-1.31,12.28-2.43,12.28-18.15v-88h-8c-7.31,0-9.4,1.69-11.88,6.18-1.83,3.56-3.66,10.3-5.35,17.78h-5c.92-13.66,1.83-28.26,2.09-37.25h3.92c2,4.31,3.53,4.68,7.44,4.68H608c3.52,0,5.35-1.12,7.57-4.68h3.79c.13,7.87.65,24.34,1.31,36.51Z" transform="translate(46.38 38.75)"/><path class="cls-1" d="M629.91,349.41v-6.93c9.93-1.31,11.1-2.43,11.1-18.15V253c0-15.72-1.3-17.22-11.1-18.34v-6.93h40.37v6.93c-9.79,1.31-11.1,2.62-11.1,18.34v71.35c0,15.53,1.18,16.66,11.1,18.15v6.93Z" transform="translate(46.38 38.75)"/><path class="cls-1" d="M727.33,225.12c24.16,0,43.87,25.27,43.87,62.15,0,39.87-19.84,65-44.52,65-26.12,0-45.06-27.33-45.06-63.46C681.62,256.76,697.56,225.12,727.33,225.12Zm-2,8.24c-13.28,0-23.05,18.72-23.05,51.85,0,31.63,8.75,58.77,26.37,58.77,12.41,0,22.07-17.22,22.07-51.47,0-37.06-10.2-59.15-25.35-59.15Z" transform="translate(46.38 38.75)"/><path class="cls-1" d="M873.58,234.67c-8,1.5-10.45,3.93-10.84,12.35-.39,7.3-.78,13.67-.78,30v74.5h-7.31l-54.46-93.59v42.3c0,16.29.26,23.59.66,29,.52,8.24,3.26,12.55,12.92,13.29v6.93H781.39v-6.93c7.44-.93,10.71-3.74,11.49-12.54.52-6.73.78-13.47.78-29.76V255.82c0-6.18-.26-10.29-2.74-15.16-2.35-4.68-5.48-5.24-11-6v-6.93h25.47l49.75,82.92V277c0-16.28-.13-22.46-.52-29.39-.4-8-2.48-12-13.32-12.91v-6.93h32.28Z" transform="translate(46.38 38.75)"/><g class="cls-2"><text class="cls-3" transform="translate(933.84 393.23) scale(0.91 1)">L</text><text class="cls-4" transform="translate(958.52 393.23) scale(0.91 1)">t</text><text class="cls-5" transform="translate(975.67 393.23) scale(0.91 1)">d</text><text class="cls-6" transform="translate(1004.89 393.23) scale(0.91 1)">.</text></g><rect class="cls-7" x="3" y="3" width="1058.28" height="440.46"/></svg>