<svg id="Layer_1" data-name="Layer 1" xmlns="http://www.w3.org/2000/svg" viewBox="0 0 969.46 368.97"><defs><style>.cls-1,.cls-2{fill:#006a80;}.cls-1{stroke:#1a6c77;stroke-miterlimit:10;}.cls-2{font-size:57.96px;font-family:MyriadPro-Regular, Myriad Pro;letter-spacing:0em;}.cls-3{letter-spacing:-0.01em;}.cls-4{letter-spacing:-0.01em;}.cls-5{letter-spacing:0em;}</style></defs><path class="cls-1" d="M281.59,134.14c-7.44,1.87-8.36,2.62-8.36,15.35V163.9a152.07,152.07,0,0,0,.78,18.16c-6.66,1.68-21,6.18-31.6,6.18-30.68,0-48.31-26.77-48.31-63.83,0-42.12,23.89-63.27,51.71-63.27,10.58,0,22.07,3.74,26.38,4.31.26,8.23,1.3,22.46,2.22,32.75l-5.1,1.31c-3.13-15.91-8-24-16.06-27.89-3-1.5-7.83-2.24-11.1-2.24-15.8,0-27.68,19.65-27.68,51.85,0,32.94,8.09,59,29.51,59,2.61,0,6-.57,8.36-2.62,2-1.69,3-4.87,3-10.67V150.43c0-13.11-1.83-14.42-12.8-16.29v-6.93h39Z" transform="translate(-38.72 -60.64)"/><path class="cls-1" d="M362.42,153.61c-.65,5-4.31,26.58-5.49,31.82H289.16v-6.74c11.88-1.69,12.67-2.62,12.67-18.34V88.84c0-15.91-1.57-17-10.45-18.15V63.76h42.44c13.71,0,18.28-.19,20.11-.37.13,3.37.78,18.71,1.31,30.32l-5.1.94c-1.17-6.37-3.39-14-5.61-17.41-2.35-3.75-4-4.87-10.71-4.87h-8.49c-5,0-5.48.38-5.48,6.74v39.12h12.8c7.31,0,8.61-2.81,10.57-16.1h5.1v41.74h-5.1c-2.09-13.85-3.13-16.09-10.7-16.09H319.85V160c0,12.92.26,16.85,8.36,17h9.27c7.31,0,9.27-1.31,12.14-6.36,3.27-5.43,5.88-12.35,8-18.72Z" transform="translate(-38.72 -60.64)"/><path class="cls-1" d="M417.39,61.14c24.16,0,43.88,25.27,43.88,62.14,0,39.87-19.85,65-44.53,65-26.12,0-45.05-27.33-45.05-63.46C371.69,92.77,387.62,61.14,417.39,61.14Zm-1.95,8.24c-13.32,0-23.12,18.71-23.12,51.85,0,31.63,8.75,58.77,26.38,58.77,12.4,0,22.07-17.22,22.07-51.47C440.77,91.46,430.58,69.38,415.44,69.38Z" transform="translate(-38.72 -60.64)"/><path class="cls-1" d="M554.77,186.55a33,33,0,0,1-3.92-.19c-16.58-1.12-21.42-6.17-25.33-14-5.23-10.3-9-21.72-13.45-33-2-5-3.79-6.18-8-6.18l-2.61-.18v27.33c0,15.16,1.3,16.47,11.1,18.15v6.93h-40V178.5c9.92-1.5,11.1-3,11.1-18.15V88.66c0-14.79-1.31-16.85-11.1-18V63.76H510.5c11.62,0,18.28,1.87,23.63,7.11,5.23,5.06,8.75,13.29,8.75,24.9,0,16.66-7.7,25.46-16.32,30.32,2,5.62,7.05,17.78,11,26.39A160.64,160.64,0,0,0,547.45,172c3,4.87,4.44,6.36,8.23,8.24ZM505,125.34c5.62,0,9.93-1.31,12.8-4.86,4.31-5.24,6.14-12.36,6.14-21.9,0-19.84-8-27-15.28-27-3.53,0-5.22.75-6,1.87s-1.17,3.37-1.17,7.12v44.73Z" transform="translate(-38.72 -60.64)"/><path class="cls-1" d="M647.22,134.14c-7.44,1.87-8.36,2.62-8.36,15.35V163.9a152.07,152.07,0,0,0,.78,18.16c-6.66,1.68-21,6.18-31.6,6.18-30.68,0-48.31-26.77-48.31-63.83,0-42.12,23.89-63.27,51.71-63.27,10.58,0,22.07,3.74,26.38,4.31.26,8.23,1.3,22.46,2.22,32.75l-5.1,1.31c-3.13-15.91-8-24-16.06-27.89-3-1.5-7.83-2.24-11.1-2.24C592,69.38,580.1,89,580.1,121.23c0,32.94,8.09,59,29.51,59,2.61,0,6-.57,8.36-2.62,2-1.69,3-4.87,3-10.67V150.43c0-13.11-1.83-14.42-12.8-16.29v-6.93h39.05Z" transform="translate(-38.72 -60.64)"/><path class="cls-1" d="M728.05,153.61c-.65,5-4.31,26.58-5.48,31.82H654.79v-6.74c11.89-1.69,12.67-2.62,12.67-18.34V88.84c0-15.91-1.57-17-10.45-18.15V63.76h42.44c13.71,0,18.28-.19,20.11-.37.13,3.37.79,18.71,1.31,30.32l-5.09.94c-1.18-6.37-3.4-14-5.62-17.41-2.35-3.75-4-4.87-10.71-4.87H691c-5,0-5.48.38-5.48,6.74v39.12h12.8c7.31,0,8.62-2.81,10.57-16.1H714v41.74h-5.1c-2.09-13.85-3.13-16.09-10.7-16.09H685.48V160c0,12.92.26,16.85,8.36,17h9.27c7.31,0,9.27-1.31,12.14-6.36,3.27-5.43,5.88-12.35,8-18.72Z" transform="translate(-38.72 -60.64)"/><path class="cls-1" d="M79.31,288.38c16.72,0,29,5.06,37.35,16.29,6.66,8.8,11.75,21.9,11.75,40.8,0,21.53-6.27,38-16.32,48.86-9.66,10.48-22.07,15.72-37,15.72H39.22v-6.93c9.93-1.12,11.1-2.8,11.1-18.34V313.65c0-15.72-1.43-17.22-11.1-18.34v-6.93ZM68.47,383.47c0,13.29,2.35,17.78,11.89,17.78,17.63,0,27.81-17.59,27.81-53,0-17.78-3.39-33.32-9.4-41.36-5.48-7.87-12.27-10.49-21-10.49-4.84,0-7.06,1.5-7.84,2.62-1.17,1.69-1.44,4.87-1.44,10.3Z" transform="translate(-38.72 -60.64)"/><path class="cls-1" d="M211.46,378.23c-.65,5-4.31,26.58-5.48,31.82H138.21v-6.74c11.88-1.68,12.66-2.62,12.66-18.34v-71.5c0-15.91-1.56-17-10.44-18.16v-6.93h42.44c13.71,0,18.28-.18,20.11-.37.13,3.37.78,18.72,1.3,30.32l-5.09.94c-1.18-6.37-3.4-14-5.62-17.41-2.35-3.74-4-4.87-10.7-4.87h-8.49c-5,0-5.49.38-5.49,6.74v39.12h12.8c7.31,0,8.62-2.8,10.58-16.09h5.09V368.5h-5.09c-2.09-13.85-3.14-16.1-10.71-16.1H168.89v32.19c0,12.92.26,16.85,8.36,17h9.27c7.32,0,9.27-1.31,12.15-6.37,3.26-5.43,5.87-12.35,8-18.71Z" transform="translate(-38.72 -60.64)"/><path class="cls-1" d="M301.7,377.86c-1.83,9.35-5.23,23.58-7.32,30.13-3.39,1.13-14.1,4.87-24,4.87-35.13,0-49.63-32.38-49.63-62.15,0-38.74,20.64-64.95,52-64.95,11.36,0,21.41,3.93,24.68,4.5.65,8.79,1.56,22.64,2.48,30.88l-5.23,1.31c-2.74-14.6-6.66-21.53-13.58-25.46-3.13-1.87-7.83-2.62-11.36-2.62-18.93,0-28.46,22.65-28.46,52,0,34.25,12.27,57.46,30.16,57.46,11,0,18.28-8.23,25.33-28.82Z" transform="translate(-38.72 -60.64)"/><path class="cls-1" d="M358.5,285.76c24.16,0,43.88,25.27,43.88,62.15,0,39.87-19.85,64.95-44.53,64.95-26.12,0-45.06-27.33-45.06-63.46C312.79,317.4,328.73,285.76,358.5,285.76Zm-2,8.24c-13.32,0-23.11,18.72-23.11,51.85,0,31.63,8.75,58.77,26.38,58.77,12.4,0,22.06-17.22,22.06-51.47C381.87,316.09,371.69,294,356.54,294Z" transform="translate(-38.72 -60.64)"/><path class="cls-1" d="M495.87,411.17A34.7,34.7,0,0,1,492,411c-16.59-1.13-21.42-6.18-25.34-14-5.22-10.3-9-21.71-13.45-32.95-2-5.05-3.79-6.17-8-6.17l-2.62-.19V385c0,15.16,1.31,16.47,11.1,18.15v6.93H413.74v-6.93c9.92-1.49,11.09-3,11.09-18.15V313.28c0-14.79-1.3-16.85-11.09-18v-6.93H451.6c11.63,0,18.29,1.88,23.64,7.12,5.22,5.05,8.75,13.29,8.75,24.89,0,16.66-7.7,25.46-16.32,30.32,2,5.62,7.05,17.79,11,26.4a160.27,160.27,0,0,0,9.92,19.46c3,4.87,4.44,6.37,8.23,8.24ZM446.12,350c5.62,0,9.92-1.31,12.8-4.87,4.31-5.24,6.13-12.35,6.13-21.9,0-19.84-8-26.95-15.27-26.95-3.53,0-5.23.74-6,1.87s-1.18,3.37-1.18,7.11V350Z" transform="translate(-38.72 -60.64)"/><path class="cls-1" d="M550.19,410.05v-6.93c8.23-1.68,8.23-3.74,6.4-11.79-1.3-5.61-3.39-14-5.35-21.52H525.78c-1.44,5.8-3.27,12.91-4.57,18.72-2.75,11.79.39,13.28,10.7,14.59v6.93H499.66v-6.93c8.22-1.49,10.31-3.18,14.75-18.9l27.17-96.77,6.26-1.69c8.36,32.57,17.24,65.89,25.73,97.15,4.83,17.41,6,18.72,14.49,20.21v6.93ZM538.7,320.58c-3.78,13.48-7.44,26-10.7,39.68h20.76Z" transform="translate(-38.72 -60.64)"/><path class="cls-1" d="M654.53,320.77a71.94,71.94,0,0,0-5.61-18.35c-2.35-3.93-3.4-5.43-11.1-5.43h-8.36v88c0,15.72,1.31,16.84,12.93,18.15v6.93H599v-6.93c11.1-1.31,12.28-2.43,12.28-18.15V297h-8c-7.31,0-9.4,1.69-11.88,6.18-1.83,3.56-3.66,10.3-5.35,17.78h-5c.92-13.66,1.83-28.26,2.09-37.25h3.92c2,4.31,3.53,4.68,7.44,4.68h52.24c3.52,0,5.35-1.12,7.57-4.68h3.79c.13,7.87.65,24.34,1.31,36.51Z" transform="translate(-38.72 -60.64)"/><path class="cls-1" d="M668.63,410.05v-6.93c9.93-1.31,11.1-2.43,11.1-18.15V313.65c0-15.72-1.3-17.22-11.1-18.34v-6.93H709v6.93c-9.79,1.31-11.1,2.62-11.1,18.34V385c0,15.53,1.18,16.66,11.1,18.15v6.93Z" transform="translate(-38.72 -60.64)"/><path class="cls-1" d="M766.05,285.76c24.16,0,43.87,25.27,43.87,62.15,0,39.87-19.84,64.95-44.52,64.95-26.12,0-45.06-27.33-45.06-63.46C720.34,317.4,736.28,285.76,766.05,285.76Zm-2,8.24C750.77,294,741,312.72,741,345.85c0,31.63,8.75,58.77,26.37,58.77,12.41,0,22.07-17.22,22.07-51.47C789.42,316.09,779.24,294,764.09,294Z" transform="translate(-38.72 -60.64)"/><path class="cls-1" d="M912.3,295.31c-8,1.5-10.45,3.93-10.84,12.35-.39,7.3-.78,13.67-.78,29.95v74.5h-7.31l-54.46-93.59v42.3c0,16.29.26,23.59.66,29,.52,8.24,3.26,12.55,12.92,13.29v6.93H820.11v-6.93c7.44-.93,10.71-3.74,11.49-12.54.52-6.73.78-13.47.78-29.76V316.46c0-6.18-.26-10.29-2.74-15.16-2.35-4.68-5.48-5.24-11-6v-6.93h25.47l49.75,82.92V337.61c0-16.28-.13-22.46-.52-29.39-.4-8-2.48-12-13.32-12.91v-6.93H912.3Z" transform="translate(-38.72 -60.64)"/><text class="cls-2" transform="translate(887.46 354.48) scale(0.91 1)">L<tspan class="cls-3" x="27.12" y="0">t</tspan><tspan class="cls-4" x="45.96" y="0">d</tspan><tspan class="cls-5" x="78.07" y="0">.</tspan></text></svg>